<svg width="213.2983642578125px" height="216.2px" xmlns="http://www.w3.org/2000/svg" viewBox="143.35081787109374 -33.099999999999994 213.2983642578125 216.2" style="background: none;" preserveAspectRatio="xMidYMid">
  <defs>
    <filter id="editing-extrusion" x="-100%" y="-100%" width="300%" height="300%">
      <feFlood result="color1" flood-color="#28008f"></feFlood>
      <feConvolveMatrix order="5,5" divisor="1" kernelMatrix="1 0 0 0 0 0 1 0 0 0 0 0 1 0 0 0 0 0 1 0 0 0 0 0 1" in="SourceAlpha" result="extrude"></feConvolveMatrix>
      <feComposite in="color1" in2="extrude" result="comp-extrude" operator="in"></feComposite>
      <feOffset dx="2.5" dy="2.5" in="comp-extrude" result="offset-extrude"></feOffset>
      <feMerge>
        <feMergeNode in="offset-extrude"></feMergeNode>
        <feMergeNode in="SourceGraphic"></feMergeNode>
      </feMerge>
    </filter>
  </defs>
  <g filter="url(#editing-extrusion)">
    <g transform="translate(179.66500794887543, 119.71500205993652)">
      <path d="M52.34-80.76L52.34-80.76Q52.34-74.79 52.70-68.69L52.70-68.69L52.70-68.69Q52.95-60.63 52.95-56.61L52.95-56.61L52.95-56.61Q52.95-51.24 52.70-41.48L52.70-41.48L52.58-33.79L52.58-33.79Q52.46-25.01 51.67-19.28L51.67-19.28L51.67-19.28Q50.87-13.54 47.70-8.91L47.70-8.91L47.70-8.91Q44.16-3.66 37.94-0.98L37.94-0.98L37.94-0.98Q31.72 1.71 23.42 1.71L23.42 1.71L23.42 1.71Q-0.61 1.71-0.61-32.70L-0.61-32.70L-0.61-32.70Q-0.61-34.77 0.92-35.62L0.92-35.62L0.92-35.62Q2.44-36.48 7.44-36.48L7.44-36.48L7.44-36.48Q12.08-36.48 15.86-36.11L15.86-36.11L15.86-36.11Q19.64-35.75 20.01-34.89L20.01-34.89L20.01-34.89Q20.01-24.03 24.77-21.35L24.77-21.35L24.77-21.35Q25.25-20.98 25.99-20.92L25.99-20.92L25.99-20.92Q26.72-20.86 27.21-20.74L27.21-20.74L28.91-20.74L28.91-20.74Q31.60-21.84 32.57-24.40L32.57-24.40L32.57-24.40Q33.55-26.96 33.55-30.62L33.55-30.62L33.55-30.62Q33.55-34.40 33.31-40.50L33.31-40.50L33.18-49.29L33.31-67.95L33.31-67.95Q33.43-74.18 33.43-86.50L33.43-86.50L34.04-87.23L51.85-87.47L52.46-86.86L52.34-80.76ZM51.48-37.09L51.48-37.09Q51.61-39.89 51.61-45.51L51.61-45.51L51.61-45.51Q51.61-53.56 51.24-61.61L51.24-61.61L51.24-61.61Q51.12-64.29 51.00-68.32L51.00-68.32L51.00-68.32Q50.87-72.35 50.87-77.71L50.87-77.71L50.87-77.71Q50.87-80.64 51.12-86.25L51.12-86.25L34.65-86.01L34.65-86.01Q34.65-82.23 34.40-75.15L34.40-75.15L34.40-75.15Q34.16-67.83 34.16-64.17L34.16-64.17L34.16-64.17Q34.16-55.75 34.53-47.34L34.53-47.34L34.53-47.34Q34.77-36.11 34.77-30.38L34.77-30.38L34.77-30.38Q34.77-26.11 33.31-22.75L33.31-22.75L33.31-22.75Q31.84-19.40 28.06-19.40L28.06-19.40L28.06-19.40Q22.81-19.40 20.80-23.97L20.80-23.97L20.80-23.97Q18.79-28.55 18.79-34.40L18.79-34.40L18.79-34.40Q13.05-35.26 8.42-35.26L8.42-35.26L8.42-35.26Q5.00-35.26 0.98-34.65L0.98-34.65L0.98-34.65Q0.73-32.21 0.73-30.38L0.73-30.38L0.73-30.38Q0.73-22.33 3.17-14.33L3.17-14.33L3.17-14.33Q5.61-6.34 10.37-3.05L10.37-3.05L10.37-3.05Q15.01 0.24 23.67 0.24L23.67 0.24L23.67 0.24Q40.99 0.24 46.73-9.52L46.73-9.52L46.73-9.52Q49.53-14.27 50.32-19.64L50.32-19.64L50.32-19.64Q51.12-25.01 51.36-33.18L51.36-33.18L51.48-37.09ZM140.67-58.19L140.67-58.19Q140.67-51.36 136.27-45.08L136.27-45.08L136.27-45.08Q131.88-38.80 125.05-34.89L125.05-34.89L125.05-34.89Q118.22-30.99 111.14-30.99L111.14-30.99L111.14-30.99Q109.19-30.99 107.12-31.35L107.12-31.35L107.12-31.35Q107.12-26.35 107.36-16.35L107.36-16.35L107.36-16.35Q107.60-6.34 107.60-1.34L107.60-1.34L107.12-0.85L107.36-0.98L107.24-0.85L106.75-0.61L106.87-0.61L106.87-0.61Q104.92 0 101.44 0.37L101.44 0.37L101.44 0.37Q97.97 0.73 94.43 0.73L94.43 0.73L94.43 0.73Q86.99 0.73 85.64-0.61L85.64-0.61L85.64-0.61Q84.91-12.32 84.91-24.16L84.91-24.16L84.91-24.16Q84.91-30.50 85.16-43.19L85.16-43.19L85.16-43.19Q85.40-55.88 85.40-62.34L85.40-62.34L85.40-62.34Q85.40-75.40 84.79-84.67L84.79-84.67L85.40-85.40L85.40-85.40Q95.04-87.72 103.82-87.72L103.82-87.72L103.82-87.72Q112.73-87.72 121.15-84.73L121.15-84.73L121.15-84.73Q129.56-81.74 135.05-75.46L135.05-75.46L135.05-75.46Q140.54-69.17 140.54-59.78L140.54-59.78L140.67-58.19ZM102.85-86.25L102.85-86.25Q94.06-86.25 86.01-84.30L86.01-84.30L86.01-84.30Q86.50-74.66 86.50-62.71L86.50-62.71L86.38-43.31L86.38-43.31Q86.13-30.38 86.13-23.91L86.13-23.91L86.13-23.91Q86.13-10.74 86.74-1.22L86.74-1.22L86.74-1.22Q88.94-0.61 94.06-0.61L94.06-0.61L94.06-0.61Q102.24-0.61 106.38-1.71L106.38-1.71L106.38-1.71Q106.38-5.25 106.14-15.49L106.14-15.49L106.14-15.49Q105.90-26.72 105.90-31.96L105.90-31.96L106.63-32.70L106.63-32.70Q108.58-32.21 111.14-32.21L111.14-32.21L111.14-32.21Q117.61-32.21 123.65-35.38L123.65-35.38L123.65-35.38Q129.69-38.55 133.83-43.86L133.83-43.86L133.83-43.86Q137.98-49.17 139.08-55.51L139.08-55.51L139.08-55.51Q139.20-55.88 139.20-56.61L139.20-56.61L139.20-56.61Q139.20-57.34 139.32-57.58L139.32-57.58L139.32-59.90L139.32-59.90Q139.32-69.30 133.96-75.21L133.96-75.21L133.96-75.21Q128.59-81.13 120.35-83.69L120.35-83.69L120.35-83.69Q112.12-86.25 102.85-86.25L102.85-86.25ZM122.98-57.34L122.98-57.34Q122.98-51.85 117.91-50.32L117.91-50.32L117.91-50.32Q112.85-48.80 105.41-48.80L105.41-48.80L105.41-48.80Q102.24-48.80 102.24-59.29L102.24-59.29L102.24-63.56L102.24-63.56Q102.24-66.98 102.85-68.20L102.85-68.20L102.97-68.32L102.97-68.32Q103.58-68.32 104.80-68.63L104.80-68.63L104.80-68.63Q106.02-68.93 106.75-68.93L106.75-68.93L106.75-68.93Q114.44-68.93 118.95-65.51L118.95-65.51L118.95-65.51Q120.78-64.29 121.88-61.98L121.88-61.98L121.88-61.98Q122.98-59.66 122.98-57.34L122.98-57.34ZM109.68-67.47L109.68-67.47Q107.97-67.47 106.99-67.34L106.99-67.34L103.82-67.22L103.70-59.78L103.70-59.78Q103.70-53.31 104.80-50.02L104.80-50.02L106.14-50.02L106.14-50.02Q107.36-50.26 107.97-50.26L107.97-50.26L110.53-50.14L110.53-50.14Q115.90-50.39 118.83-52.22L118.83-52.22L118.83-52.22Q121.76-54.05 121.76-58.93L121.76-58.93L121.76-58.93Q121.15-61 120.41-62.22L120.41-62.22L120.41-62.22Q119.68-63.44 118.22-64.54L118.22-64.54L118.22-64.54Q115.90-66.25 113.95-66.86L113.95-66.86L113.95-66.86Q112.00-67.47 109.68-67.47L109.68-67.47Z" fill="#00e1c7"></path>
    </g>
  </g>
  <style>
    text {
      font-size: 64px;
      font-family: Arial Black;
      dominant-baseline: central;
      text-anchor: middle;
    }
  </style>
</svg>