<svg version="1.1" id="Layer_1" xmlns="http://www.w3.org/2000/svg" xmlns:xlink="http://www.w3.org/1999/xlink" x="0px" y="0px"
	 width="100%" viewBox="0 0 630 630" enable-background="new 0 0 630 630" xml:space="preserve">
<path fill="#FFFFFF" opacity="1.000000" stroke="none" 
	d="
M429.000000,631.000000 
	C286.000031,631.000000 143.500046,631.000000 1.000057,631.000000 
	C1.000038,421.000061 1.000038,211.000122 1.000019,1.000142 
	C210.999893,1.000095 420.999786,1.000095 630.999756,1.000047 
	C630.999878,210.999863 630.999878,420.999725 630.999939,630.999756 
	C563.833313,631.000000 496.666656,631.000000 429.000000,631.000000 
M206.806259,217.989868 
	C207.878555,220.214066 208.950867,222.438248 210.023163,224.662445 
	C210.533524,224.376648 211.043869,224.090851 211.554230,223.805069 
	C210.089050,221.490372 208.623886,219.175674 206.826508,216.253281 
	C204.647079,213.136673 202.360260,210.239380 197.018600,211.303528 
	C200.779709,213.669449 203.684738,215.496872 206.806259,217.989868 
M448.011841,275.844391 
	C446.832794,284.123047 445.653748,292.401672 444.452148,300.838684 
	C452.692291,299.943390 458.824005,297.755310 461.769226,289.693970 
	C463.215027,284.812592 464.660797,279.931213 466.797485,274.652069 
	C468.176147,266.874786 469.917267,259.135864 470.746216,251.300400 
	C471.056366,248.368790 470.167236,243.788040 468.177338,242.495300 
	C465.258331,240.598953 460.869110,240.720535 457.083191,240.571793 
	C456.106842,240.533447 454.495728,242.542801 454.120239,243.877151 
	C452.817017,248.508560 451.929077,253.256821 450.190308,258.359253 
	C449.514282,263.904541 448.838287,269.449829 448.011841,275.844391 
M264.200317,162.901505 
	C256.695282,168.361191 249.190231,173.820892 241.685196,179.280579 
	C241.836594,179.690598 241.987991,180.100601 242.139389,180.510605 
	C253.385620,180.510605 264.631836,180.510605 276.754303,180.765808 
	C284.505188,181.782990 292.256042,182.800171 300.707581,184.094986 
	C303.704315,185.063614 306.759277,185.883224 309.687683,187.026794 
	C322.050079,191.854416 326.067413,198.234970 324.904266,211.094879 
	C324.725739,213.068802 324.238251,215.014771 323.364990,217.383896 
	C319.911072,219.651566 316.457153,221.919235 312.226807,224.131287 
	C304.825134,225.698761 297.543335,227.439545 294.492004,236.569839 
	C292.983826,247.375977 291.475677,258.182098 289.584930,269.685547 
	C288.452118,280.122833 287.319305,290.560120 285.980988,301.820679 
	C285.298340,308.524353 284.615662,315.228027 283.583374,322.438599 
	C283.527740,323.245911 283.472107,324.053192 283.161804,325.689056 
	C283.112274,327.130066 283.062744,328.571045 282.680023,330.751862 
	C281.768311,339.487152 280.856628,348.222412 279.552643,357.653198 
	C277.631927,369.740021 275.711212,381.826843 273.306885,394.429657 
	C270.161285,401.273834 267.015656,408.118011 263.263245,415.264435 
	C260.521423,419.184570 257.779572,423.104706 254.437241,427.311157 
	C249.256668,432.198120 244.076111,437.085083 238.242249,442.150940 
	C233.156662,445.463593 228.071075,448.776245 222.286606,452.162567 
	C215.519363,455.205963 208.752121,458.249359 201.270691,461.392639 
	C193.217316,463.789001 185.163940,466.185364 176.873199,468.652344 
	C181.559021,482.954529 186.134369,497.140869 190.957397,511.242493 
	C191.366913,512.439819 193.421844,513.832703 194.726532,513.847046 
	C206.509689,513.976562 218.296021,513.818604 230.993118,513.900024 
	C298.634552,513.844055 366.276001,513.794861 433.917419,513.702820 
	C436.183411,513.699768 438.448822,513.265320 441.075623,512.367676 
	C442.712158,507.568481 444.348724,502.769287 446.444611,497.426819 
	C450.916290,483.629639 455.388000,469.832489 459.668610,456.624908 
	C453.821228,458.992310 448.034790,461.799347 441.958221,463.657776 
	C436.468933,465.336578 430.662476,465.978394 424.107788,466.977753 
	C416.338593,467.627258 408.569427,468.276764 399.901062,468.754761 
	C393.269196,468.892120 386.637360,469.029480 379.077698,469.022369 
	C372.742188,468.988068 366.406677,468.953766 359.317535,468.596283 
	C352.565155,468.050781 345.812805,467.505280 338.661621,466.626556 
	C338.166382,466.578339 337.671173,466.530121 336.482239,466.219757 
	C335.990784,466.202911 335.499329,466.186066 334.280670,465.902313 
	C330.197449,464.914551 326.114197,463.926788 321.524841,462.442963 
	C308.598663,457.225861 305.470215,452.515350 305.944092,438.991180 
	C305.978943,437.997681 305.990509,437.003357 306.404999,435.403656 
	C307.115234,430.613892 310.563477,428.545624 314.619202,426.962006 
	C318.523865,425.437378 322.357727,423.731262 326.801270,421.781555 
	C333.553833,416.499664 335.378204,408.834595 337.147736,400.213043 
	C337.303223,399.114685 337.389648,398.001221 337.625549,396.920410 
	C339.072693,390.290161 340.553680,383.667267 342.326599,376.705353 
	C342.206512,376.167664 342.086456,375.629974 341.997925,375.039917 
	C341.997925,375.039917 341.941956,375.015228 342.154633,374.360443 
	C344.036072,364.905304 345.917542,355.450165 348.031494,345.141815 
	C348.309509,343.226898 348.580109,341.310852 348.866852,339.397217 
	C350.185425,330.596954 351.508453,321.797363 353.055115,312.140900 
	C353.150513,310.175812 353.110199,308.192841 353.366150,306.248871 
	C354.206207,299.868317 355.153778,293.501862 356.452179,286.413513 
	C357.248505,278.274597 358.044800,270.135651 359.013275,261.211853 
	C359.451172,253.681641 359.990631,246.155609 360.300446,238.620117 
	C360.660553,229.861176 358.540588,227.059052 350.157043,224.671890 
	C348.724304,224.263916 347.266449,223.944885 345.823944,223.570328 
	C333.504669,220.371353 329.421204,213.450531 332.460815,200.940735 
	C332.694489,199.978973 332.883148,199.006271 333.622955,197.572418 
	C334.648132,192.092728 339.665924,190.267487 343.906830,186.996964 
	C346.271271,185.952713 348.635742,184.908463 351.784485,183.880600 
	C354.877350,183.172409 357.970184,182.464218 361.919159,181.817169 
	C371.753662,181.817169 381.588135,181.817169 391.422638,181.817169 
	C391.459381,181.271912 391.496155,180.726654 391.532928,180.181396 
	C382.116455,173.365143 372.711487,166.532944 363.279236,159.738571 
	C357.537262,155.602417 351.753235,151.524582 345.502869,146.909286 
	C336.616760,140.461288 327.639893,134.132782 318.898193,127.494591 
	C316.173126,125.425247 314.305298,125.415054 311.644409,128.260498 
	C309.092041,130.158997 306.539673,132.057495 303.382690,134.257965 
	C299.931366,136.884094 296.480042,139.510223 292.377533,142.303802 
	C288.208710,145.436874 284.039886,148.569946 279.213287,151.933792 
	C274.427521,155.509323 269.641754,159.084854 264.200317,162.901505 
M190.353378,276.303955 
	C190.552948,264.550293 190.881119,252.796677 190.888000,241.042892 
	C190.890701,236.420929 189.650757,231.725891 184.715179,230.124542 
	C179.751770,228.514191 174.373016,227.270508 169.302734,232.120758 
	C165.496902,234.980560 161.691071,237.840363 157.227402,240.936859 
	C153.739273,243.585861 150.251144,246.234848 146.076950,248.934677 
	C142.687637,251.553650 139.298309,254.172623 135.241364,256.979919 
	C130.456116,260.569916 125.670876,264.159943 120.218018,267.948517 
	C118.473953,269.197510 116.554268,270.270477 115.055626,271.765503 
	C114.235207,272.583923 113.482956,274.321625 113.794594,275.293945 
	C117.412064,286.580597 121.238602,297.800232 125.005157,309.808014 
	C130.411499,326.207947 135.817841,342.607880 141.243332,359.758331 
	C147.870132,379.992218 154.496933,400.226074 161.338699,421.116302 
	C167.827286,414.064178 171.548386,406.421295 174.265030,397.374115 
	C175.808823,391.584290 177.352600,385.794495 179.234253,379.301270 
	C180.748535,370.883270 182.262817,362.465271 183.988754,353.223846 
	C184.675278,345.184937 185.361786,337.146027 186.742935,328.665375 
	C187.169571,323.448822 187.596191,318.232300 188.363327,312.277863 
	C188.857773,303.185120 189.352219,294.092377 190.011292,284.129089 
	C190.019501,281.772156 190.027695,279.415253 190.353378,276.303955 
M479.359192,395.229156 
	C483.006622,383.992035 486.654053,372.754913 490.293518,361.542297 
	C478.764923,362.101379 467.886047,362.628967 456.084869,362.987427 
	C451.325531,362.987427 446.566223,362.987427 440.989532,362.987427 
	C440.989532,366.829498 440.989532,370.425079 440.681763,374.766022 
	C439.972382,384.223877 439.250244,393.680817 438.570190,403.140778 
	C438.487213,404.295166 438.586151,405.469238 438.675690,406.628418 
	C439.530426,417.694214 442.469330,421.571564 453.023071,424.931915 
	C459.179016,426.891937 464.548218,429.453522 465.979095,436.961914 
	C467.862671,430.970886 469.746246,424.979889 471.957428,418.294800 
	C474.286896,410.805725 476.616364,403.316681 479.359192,395.229156 
M116.974991,530.109558 
	C116.974991,510.870148 116.974991,491.630737 116.974991,472.297119 
	C101.416451,472.297119 86.381256,472.297119 71.311493,472.297119 
	C71.311493,491.958618 71.311493,511.321716 71.311493,531.180359 
	C76.745392,531.180359 81.872330,531.180359 87.001266,532.034363 
	C87.509605,532.684265 88.010254,533.893799 88.527405,533.900879 
	C97.341293,534.022034 106.158516,534.056030 114.970055,533.871887 
	C115.614578,533.858459 116.221169,532.029358 116.974991,530.109558 
M533.160583,255.330917 
	C536.262451,257.560333 539.304993,259.879181 542.486938,261.987671 
	C544.610718,263.394958 545.037659,264.749512 544.135071,267.312927 
	C541.008545,276.192322 538.246948,285.200500 535.364624,294.165497 
	C531.978088,304.698761 528.610352,315.238068 525.116577,326.142578 
	C534.578186,323.096436 546.081299,314.067596 552.417175,304.082336 
	C563.736206,286.243805 571.528259,267.281708 567.976807,245.508072 
	C564.907593,226.691254 555.598938,212.648163 536.117493,207.866913 
	C524.909485,205.116165 513.492737,202.375641 502.043884,201.666595 
	C488.807495,200.846832 475.432495,202.265457 462.117706,202.712234 
	C462.091003,203.070633 462.064331,203.429047 462.037659,203.787460 
	C485.545349,220.837601 509.053009,237.887756 533.160583,255.330917 
M135.095993,444.720245 
	C131.742065,443.080170 127.599419,442.193604 125.179726,439.660950 
	C117.427055,431.546356 114.516197,421.601501 117.298706,410.544891 
	C118.625160,405.274078 120.897369,400.246521 122.594315,395.060730 
	C123.137650,393.400269 123.736549,391.478516 123.407440,389.859802 
	C121.864929,382.272675 110.257591,374.130676 102.879539,376.308899 
	C95.666000,378.438507 88.134285,381.049927 82.151939,385.392059 
	C74.822266,390.712128 70.797058,399.821014 71.726723,408.495544 
	C72.979721,420.187012 78.304329,430.843323 89.898064,436.506744 
	C96.581581,439.771606 103.232483,443.319336 110.267525,445.600128 
	C122.225410,449.476898 134.473068,452.468536 147.282623,450.923218 
	C147.332474,446.900482 145.660233,445.310883 141.809555,445.667358 
	C139.877304,445.846191 137.869324,445.207062 135.095993,444.720245 
M554.531006,180.999542 
	C559.284241,180.999542 564.037415,180.999542 568.691650,180.999542 
	C568.691650,165.656113 568.691650,150.942947 568.691650,136.316513 
	C560.656128,136.316513 552.932861,136.316513 545.310303,136.316513 
	C545.310303,151.347580 545.310303,166.060730 545.310303,180.999542 
	C548.260010,180.999542 550.901733,180.999542 554.531006,180.999542 
M397.500000,533.071960 
	C364.695099,533.071960 331.890167,533.071960 299.085266,533.071960 
	C352.349060,533.820435 405.610779,534.055237 458.865997,533.072083 
	C438.743988,533.072083 418.622009,533.072083 397.500000,533.071960 
M464.947693,342.978790 
	C465.879517,342.866241 466.811310,342.753723 467.743103,342.641174 
	C467.729401,342.521606 467.715668,342.402008 467.701935,342.282410 
	C455.086304,342.282410 442.470642,342.282410 429.855011,342.282410 
	C429.855072,342.519440 429.855133,342.756470 429.855225,342.993500 
	C441.260834,342.993500 452.666412,342.993500 464.947693,342.978790 
M265.682434,200.094208 
	C254.929947,200.094208 244.177444,200.094208 233.424957,200.094208 
	C233.428360,200.321823 233.431778,200.549454 233.435181,200.777069 
	C244.873505,200.777069 256.311829,200.777069 267.750153,200.777069 
	C267.754761,200.648422 267.759338,200.519760 267.763947,200.391113 
	C267.326019,200.301758 266.888062,200.212387 265.682434,200.094208 
M379.953552,255.006287 
	C380.034546,255.802124 380.115570,256.597961 380.196564,257.393799 
	C380.372772,257.385925 380.548950,257.378021 380.725159,257.370117 
	C380.725159,246.189209 380.725159,235.008301 380.725159,223.827393 
	C380.469727,223.825760 380.214264,223.824127 379.958832,223.822510 
	C379.958832,233.916504 379.958832,244.010513 379.953552,255.006287 
M418.014282,411.403748 
	C418.014282,413.977386 418.014282,416.551025 418.014282,419.124664 
	C418.255035,419.107666 418.495789,419.090668 418.736542,419.073669 
	C418.736542,408.620850 418.736542,398.168060 418.736542,387.715240 
	C418.495850,387.714081 418.255157,387.712921 418.014465,387.711731 
	C418.014465,395.284424 418.014465,402.857117 418.014282,411.403748 
M389.003479,449.017731 
	C390.006805,448.907013 391.010132,448.796295 392.013458,448.685608 
	C391.999329,448.527405 391.985199,448.369202 391.971069,448.210999 
	C383.927399,448.210999 375.883698,448.210999 367.840027,448.210999 
	C367.838226,448.481506 367.836426,448.752014 367.834625,449.022522 
	C374.593964,449.022522 381.353302,449.022522 389.003479,449.017731 
z"/>
<path fill="#3B027D" opacity="1.000000" stroke="none" 
	d="
M532.860596,255.134399 
	C509.053009,237.887756 485.545349,220.837601 462.037659,203.787460 
	C462.064331,203.429047 462.091003,203.070633 462.117706,202.712234 
	C475.432495,202.265457 488.807495,200.846832 502.043884,201.666595 
	C513.492737,202.375641 524.909485,205.116165 536.117493,207.866913 
	C555.598938,212.648163 564.907593,226.691254 567.976807,245.508072 
	C571.528259,267.281708 563.736206,286.243805 552.417175,304.082336 
	C546.081299,314.067596 534.578186,323.096436 525.116577,326.142578 
	C528.610352,315.238068 531.978088,304.698761 535.364624,294.165497 
	C538.246948,285.200500 541.008545,276.192322 544.135071,267.312927 
	C545.037659,264.749512 544.610718,263.394958 542.486938,261.987671 
	C539.304993,259.879181 536.262451,257.560333 532.860596,255.134399 
z"/>
<path fill="#03E0C8" opacity="1.000000" stroke="none" 
	d="
M135.495789,444.829041 
	C137.869324,445.207062 139.877304,445.846191 141.809555,445.667358 
	C145.660233,445.310883 147.332474,446.900482 147.282623,450.923218 
	C134.473068,452.468536 122.225410,449.476898 110.267525,445.600128 
	C103.232483,443.319336 96.581581,439.771606 89.898064,436.506744 
	C78.304329,430.843323 72.979721,420.187012 71.726723,408.495544 
	C70.797058,399.821014 74.822266,390.712128 82.151939,385.392059 
	C88.134285,381.049927 95.666000,378.438507 102.879539,376.308899 
	C110.257591,374.130676 121.864929,382.272675 123.407440,389.859802 
	C123.736549,391.478516 123.137650,393.400269 122.594315,395.060730 
	C120.897369,400.246521 118.625160,405.274078 117.298706,410.544891 
	C114.516197,421.601501 117.427055,431.546356 125.179726,439.660950 
	C127.599419,442.193604 131.742065,443.080170 135.495789,444.829041 
z"/>
<path fill="#00E2C8" opacity="1.000000" stroke="none" 
	d="
M86.999268,531.180359 
	C81.872330,531.180359 76.745392,531.180359 71.311493,531.180359 
	C71.311493,511.321716 71.311493,491.958618 71.311493,472.297119 
	C86.381256,472.297119 101.416451,472.297119 116.974991,472.297119 
	C116.974991,491.630737 116.974991,510.870148 116.451782,530.569336 
	C106.285469,531.079529 96.642365,531.129944 86.999268,531.180359 
z"/>
<path fill="#017BD7" opacity="1.000000" stroke="none" 
	d="
M289.967529,268.988251 
	C291.475677,258.182098 292.983826,247.375977 294.950195,236.569702 
	C296.251984,237.337891 297.263123,237.986038 297.913513,238.892914 
	C305.221313,249.082657 312.548706,259.259827 319.722076,269.544128 
	C328.971680,282.805054 338.011932,296.212799 347.352081,309.408844 
	C348.525635,311.066864 350.972809,311.823334 352.829895,312.997528 
	C351.508453,321.797363 350.185425,330.596954 348.866852,339.397217 
	C348.580109,341.310852 348.309509,343.226898 347.558960,345.562622 
	C346.217255,345.582916 345.012299,345.422577 344.528564,344.746338 
	C334.696686,331.001099 325.019287,317.145142 315.159363,303.420258 
	C306.862335,291.870911 298.372192,280.460266 289.967529,268.988251 
z"/>
<path fill="#01B0DA" opacity="1.000000" stroke="none" 
	d="
M306.012909,436.009430 
	C305.990509,437.003357 305.978943,437.997681 305.944092,438.991180 
	C305.470215,452.515350 308.598663,457.225861 321.774597,463.066345 
	C323.764679,466.609894 325.335327,469.648285 327.274811,472.429565 
	C335.485840,484.204529 343.834198,495.883728 352.048859,507.656189 
	C352.978699,508.988708 353.381531,510.689026 354.308014,512.878906 
	C347.215485,512.878906 341.106964,512.878906 334.956909,512.536926 
	C324.634766,497.336548 314.388000,482.454620 304.064484,467.626068 
	C292.699036,451.300964 281.332092,434.975525 269.759857,418.797577 
	C268.490356,417.022827 265.865967,416.217285 263.870026,414.962189 
	C267.015656,408.118011 270.161285,401.273834 273.927307,394.200806 
	C275.385468,394.400177 276.528595,394.609344 277.015900,395.288849 
	C286.726959,408.829803 296.362274,422.425140 306.012909,436.009430 
z"/>
<path fill="#0188DB" opacity="1.000000" stroke="none" 
	d="
M289.776245,269.336914 
	C298.372192,280.460266 306.862335,291.870911 315.159363,303.420258 
	C325.019287,317.145142 334.696686,331.001099 344.528564,344.746338 
	C345.012299,345.422577 346.217255,345.582916 347.442688,345.989258 
	C345.917542,355.450165 344.036072,364.905304 341.705139,374.645874 
	C339.750244,373.458984 337.986359,372.170441 336.785156,370.481689 
	C332.179321,364.006409 327.818542,357.357330 323.248108,350.856232 
	C313.829224,337.458588 304.414581,324.056366 294.816925,310.787109 
	C292.279205,307.278625 289.081299,304.247650 286.186523,300.997406 
	C287.319305,290.560120 288.452118,280.122833 289.776245,269.336914 
z"/>
<path fill="#01CAD2" opacity="1.000000" stroke="none" 
	d="
M183.777100,354.047272 
	C182.262817,362.465271 180.748535,370.883270 178.726501,379.611877 
	C176.528885,378.381897 174.488022,377.088470 173.202759,375.263031 
	C158.437164,354.291595 143.809570,333.223022 129.050827,312.246704 
	C128.101364,310.897278 126.374794,310.094635 125.009727,309.037628 
	C121.238602,297.800232 117.412064,286.580597 113.794594,275.293945 
	C113.482956,274.321625 114.235207,272.583923 115.055626,271.765503 
	C116.554268,270.270477 118.473953,269.197510 120.610954,268.219482 
	C122.204971,270.659088 123.225868,272.953522 124.636948,274.975647 
	C132.603241,286.391449 140.692078,297.721619 148.683945,309.119690 
	C158.577362,323.229767 168.380295,337.403503 178.327286,351.475525 
	C179.529404,353.176178 180.671188,355.959564 183.777100,354.047272 
z"/>
<path fill="#00B8D8" opacity="1.000000" stroke="none" 
	d="
M263.566650,415.113312 
	C265.865967,416.217285 268.490356,417.022827 269.759857,418.797577 
	C281.332092,434.975525 292.699036,451.300964 304.064484,467.626068 
	C314.388000,482.454620 324.634766,497.336548 334.489410,512.572021 
	C327.043915,512.938416 320.024414,512.927734 312.997620,512.546875 
	C311.003143,508.803741 309.220490,505.288879 306.994049,502.082153 
	C296.046570,486.314514 284.931366,470.663361 273.976410,454.900879 
	C267.565704,445.676849 261.344330,436.321228 255.037750,427.024841 
	C257.779572,423.104706 260.521423,419.184570 263.566650,415.113312 
z"/>
<path fill="#01C0D5" opacity="1.000000" stroke="none" 
	d="
M254.737503,427.167999 
	C261.344330,436.321228 267.565704,445.676849 273.976410,454.900879 
	C284.931366,470.663361 296.046570,486.314514 306.994049,502.082153 
	C309.220490,505.288879 311.003143,508.803741 312.528931,512.571899 
	C304.379333,512.950989 296.691254,512.934753 288.996887,512.552185 
	C288.648346,511.276581 288.471039,510.254272 287.938049,509.475403 
	C282.805206,501.974945 277.635193,494.499573 272.431915,487.047699 
	C263.139679,473.739716 253.872879,460.413086 244.448059,447.199402 
	C243.000198,445.169525 240.766052,443.700470 238.895569,441.972046 
	C244.076111,437.085083 249.256668,432.198120 254.737503,427.167999 
z"/>
<path fill="#01C0D5" opacity="1.000000" stroke="none" 
	d="
M183.882935,353.635559 
	C180.671188,355.959564 179.529404,353.176178 178.327286,351.475525 
	C168.380295,337.403503 158.577362,323.229767 148.683945,309.119690 
	C140.692078,297.721619 132.603241,286.391449 124.636948,274.975647 
	C123.225868,272.953522 122.204971,270.659088 120.944763,268.120178 
	C125.670876,264.159943 130.456116,260.569916 135.629547,257.255188 
	C139.839630,263.298218 143.524002,269.162933 147.508850,274.815887 
	C160.295563,292.955109 173.193359,311.015991 186.048309,329.107117 
	C185.361786,337.146027 184.675278,345.184937 183.882935,353.635559 
z"/>
<path fill="#019ADD" opacity="1.000000" stroke="none" 
	d="
M279.944946,356.957703 
	C280.856628,348.222412 281.768311,339.487152 283.192871,330.412720 
	C285.406769,331.596100 287.474792,332.860870 288.752838,334.680481 
	C303.673492,355.923737 318.456818,377.263489 333.361145,398.518311 
	C334.133392,399.619629 335.670258,400.184784 336.851135,400.999573 
	C335.378204,408.834595 333.553833,416.499664 326.149719,421.884583 
	C321.296570,416.587524 316.901428,411.325470 312.931458,405.760162 
	C303.069519,391.935059 293.364899,377.996979 283.693878,364.037231 
	C282.183960,361.857727 281.181854,359.326355 279.944946,356.957703 
z"/>
<path fill="#02E0C9" opacity="1.000000" stroke="none" 
	d="
M230.081421,513.744995 
	C218.296021,513.818604 206.509689,513.976562 194.726532,513.847046 
	C193.421844,513.832703 191.366913,512.439819 190.957397,511.242493 
	C186.134369,497.140869 181.559021,482.954529 176.873199,468.652344 
	C185.163940,466.185364 193.217316,463.789001 201.682373,461.677399 
	C210.538757,474.282654 219.047592,486.559937 227.394669,498.946228 
	C230.464661,503.501892 233.152481,508.315063 235.621506,513.020386 
	C233.512741,513.268372 231.797073,513.506653 230.081421,513.744995 
z"/>
<path fill="#0191DC" opacity="1.000000" stroke="none" 
	d="
M336.999451,400.606323 
	C335.670258,400.184784 334.133392,399.619629 333.361145,398.518311 
	C318.456818,377.263489 303.673492,355.923737 288.752838,334.680481 
	C287.474792,332.860870 285.406769,331.596100 283.359497,330.042816 
	C283.062744,328.571045 283.112274,327.130066 283.471313,325.029266 
	C283.831543,323.556885 283.882263,322.744293 283.932983,321.931702 
	C284.615662,315.228027 285.298340,308.524353 286.083740,301.409058 
	C289.081299,304.247650 292.279205,307.278625 294.816925,310.787109 
	C304.414581,324.056366 313.829224,337.458588 323.248108,350.856232 
	C327.818542,357.357330 332.179321,364.006409 336.785156,370.481689 
	C337.986359,372.170441 339.750244,373.458984 341.598816,374.973267 
	C341.941956,375.015228 341.997925,375.039917 341.996033,375.390747 
	C342.003876,376.175049 342.013641,376.608490 342.023376,377.041931 
	C340.553680,383.667267 339.072693,390.290161 337.625549,396.920410 
	C337.389648,398.001221 337.303223,399.114685 336.999451,400.606323 
z"/>
<path fill="#00CBD1" opacity="1.000000" stroke="none" 
	d="
M238.568909,442.061493 
	C240.766052,443.700470 243.000198,445.169525 244.448059,447.199402 
	C253.872879,460.413086 263.139679,473.739716 272.431915,487.047699 
	C277.635193,494.499573 282.805206,501.974945 287.938049,509.475403 
	C288.471039,510.254272 288.648346,511.276581 288.528381,512.579224 
	C279.381073,512.965515 270.696045,512.958435 262.002411,512.580566 
	C261.480347,510.831512 261.227844,509.271515 260.413788,508.102600 
	C250.139420,493.350983 239.702591,478.711853 229.506927,463.906494 
	C226.967529,460.219086 225.140137,456.041290 222.985489,452.088898 
	C228.071075,448.776245 233.156662,445.463593 238.568909,442.061493 
z"/>
<path fill="#0170D2" opacity="1.000000" stroke="none" 
	d="
M352.942505,312.569214 
	C350.972809,311.823334 348.525635,311.066864 347.352081,309.408844 
	C338.011932,296.212799 328.971680,282.805054 319.722076,269.544128 
	C312.548706,259.259827 305.221313,249.082657 297.913513,238.892914 
	C297.263123,237.986038 296.251984,237.337891 295.207214,236.305145 
	C297.543335,227.439545 304.825134,225.698761 312.615356,224.533539 
	C313.726105,226.735245 314.143555,228.745178 315.218170,230.301254 
	C324.637390,243.940292 334.101318,257.549957 343.710876,271.055298 
	C347.625580,276.557037 351.931885,281.780151 356.060028,287.130005 
	C355.153778,293.501862 354.206207,299.868317 353.366150,306.248871 
	C353.110199,308.192841 353.150513,310.175812 352.942505,312.569214 
z"/>
<path fill="#0260C7" opacity="1.000000" stroke="none" 
	d="
M333.092743,198.038651 
	C332.883148,199.006271 332.694489,199.978973 332.460815,200.940735 
	C329.421204,213.450531 333.504669,220.371353 345.823944,223.570328 
	C347.266449,223.944885 348.724304,224.263916 350.157043,224.671890 
	C358.540588,227.059052 360.660553,229.861176 360.300446,238.620117 
	C359.990631,246.155609 359.451172,253.681641 358.589355,261.561829 
	C357.177856,261.069397 355.962067,260.387787 355.237762,259.359863 
	C347.499969,248.378189 339.929779,237.277359 332.105103,226.358627 
	C329.695190,222.995819 326.648682,220.089188 323.893646,216.973679 
	C324.238251,215.014771 324.725739,213.068802 324.904266,211.094879 
	C326.067413,198.234970 322.050079,191.854416 309.687683,187.026794 
	C306.759277,185.883224 303.704315,185.063614 300.349670,183.596436 
	C299.008087,181.245956 298.162598,179.303391 297.017303,177.557465 
	C291.345367,168.910797 285.594269,160.316040 279.871033,151.703003 
	C284.039886,148.569946 288.208710,145.436874 292.738342,142.565308 
	C293.420776,143.585403 293.619659,144.429962 294.081909,145.090057 
	C305.420502,161.280960 316.749268,177.479095 328.202545,193.588684 
	C329.450348,195.343781 331.444672,196.568130 333.092743,198.038651 
z"/>
<path fill="#01A5DC" opacity="1.000000" stroke="none" 
	d="
M279.748779,357.305450 
	C281.181854,359.326355 282.183960,361.857727 283.693878,364.037231 
	C293.364899,377.996979 303.069519,391.935059 312.931458,405.760162 
	C316.901428,411.325470 321.296570,416.587524 325.860443,422.046265 
	C322.357727,423.731262 318.523865,425.437378 314.619202,426.962006 
	C310.563477,428.545624 307.115234,430.613892 306.208954,435.706543 
	C296.362274,422.425140 286.726959,408.829803 277.015900,395.288849 
	C276.528595,394.609344 275.385468,394.400177 274.169128,393.942810 
	C275.711212,381.826843 277.631927,369.740021 279.748779,357.305450 
z"/>
<path fill="#02D7CC" opacity="1.000000" stroke="none" 
	d="
M222.636047,452.125732 
	C225.140137,456.041290 226.967529,460.219086 229.506927,463.906494 
	C239.702591,478.711853 250.139420,493.350983 260.413788,508.102600 
	C261.227844,509.271515 261.480347,510.831512 261.532776,512.599854 
	C252.719360,512.996887 244.366989,513.003784 236.014618,513.010742 
	C233.152481,508.315063 230.464661,503.501892 227.394669,498.946228 
	C219.047592,486.559937 210.538757,474.282654 202.039459,461.627441 
	C208.752121,458.249359 215.519363,455.205963 222.636047,452.125732 
z"/>
<path fill="#02D3CE" opacity="1.000000" stroke="none" 
	d="
M125.007446,309.422821 
	C126.374794,310.094635 128.101364,310.897278 129.050827,312.246704 
	C143.809570,333.223022 158.437164,354.291595 173.202759,375.263031 
	C174.488022,377.088470 176.528885,378.381897 178.557587,379.963562 
	C177.352600,385.794495 175.808823,391.584290 173.706055,397.682373 
	C171.484497,396.766541 169.384949,395.858795 168.231567,394.265930 
	C161.653854,385.182007 155.418793,375.849182 148.804672,366.792755 
	C146.689774,363.896912 143.773697,361.586243 141.224182,359.007812 
	C135.817841,342.607880 130.411499,326.207947 125.007446,309.422821 
z"/>
<path fill="#00B8D8" opacity="1.000000" stroke="none" 
	d="
M186.395630,328.886230 
	C173.193359,311.015991 160.295563,292.955109 147.508850,274.815887 
	C143.524002,269.162933 139.839630,263.298218 135.963348,257.161011 
	C139.298309,254.172623 142.687637,251.553650 146.720551,249.091583 
	C159.568192,266.480896 171.615707,283.828003 184.095627,300.858246 
	C186.918304,304.710083 188.675461,308.321381 188.022812,313.015747 
	C187.596191,318.232300 187.169571,323.448822 186.395630,328.886230 
z"/>
<path fill="#0167CD" opacity="1.000000" stroke="none" 
	d="
M323.629333,217.178787 
	C326.648682,220.089188 329.695190,222.995819 332.105103,226.358627 
	C339.929779,237.277359 347.499969,248.378189 355.237762,259.359863 
	C355.962067,260.387787 357.177856,261.069397 358.503296,261.954285 
	C358.044800,270.135651 357.248505,278.274597 356.256104,286.771759 
	C351.931885,281.780151 347.625580,276.557037 343.710876,271.055298 
	C334.101318,257.549957 324.637390,243.940292 315.218170,230.301254 
	C314.143555,228.745178 313.726105,226.735245 313.003540,224.561340 
	C316.457153,221.919235 319.911072,219.651566 323.629333,217.178787 
z"/>
<path fill="#015DC5" opacity="1.000000" stroke="none" 
	d="
M440.989532,374.020660 
	C440.989532,370.425079 440.989532,366.829498 440.989532,362.987427 
	C446.566223,362.987427 451.325531,362.987427 456.586548,363.416626 
	C457.788513,365.142609 458.369934,366.522308 459.207886,367.722961 
	C465.759430,377.110596 472.360260,386.463806 478.945862,395.827637 
	C476.616364,403.316681 474.286896,410.805725 471.448059,418.632904 
	C469.847809,418.114105 468.489044,417.450623 467.708405,416.369659 
	C461.448914,407.702057 454.911285,399.196960 449.266571,390.138794 
	C446.104584,385.064728 439.919312,381.318665 440.989532,374.020660 
z"/>
<path fill="#3A007C" opacity="1.000000" stroke="none" 
	d="
M554.037231,180.999542 
	C550.901733,180.999542 548.260010,180.999542 545.310303,180.999542 
	C545.310303,166.060730 545.310303,151.347580 545.310303,136.316513 
	C552.932861,136.316513 560.656128,136.316513 568.691650,136.316513 
	C568.691650,150.942947 568.691650,165.656113 568.691650,180.999542 
	C564.037415,180.999542 559.284241,180.999542 554.037231,180.999542 
z"/>
<path fill="#01A5DC" opacity="1.000000" stroke="none" 
	d="
M339.060425,466.959778 
	C345.812805,467.505280 352.565155,468.050781 359.420471,468.990906 
	C359.784485,470.882385 359.640381,472.630310 360.383118,473.828644 
	C362.543304,477.313812 365.112122,480.542419 367.424347,483.937256 
	C373.975647,493.555969 380.479004,503.207336 386.534210,512.890808 
	C380.417328,512.947449 374.753967,513.180908 369.125641,512.838867 
	C367.382202,512.732910 365.181061,511.469696 364.131165,510.043213 
	C356.975677,500.321533 349.926331,490.513306 343.151642,480.523499 
	C340.073822,475.985046 337.700684,470.968750 335.007874,466.169189 
	C335.499329,466.186066 335.990784,466.202911 337.017822,466.518250 
	C338.055756,466.864441 338.558105,466.912109 339.060425,466.959778 
z"/>
<path fill="#0191DC" opacity="1.000000" stroke="none" 
	d="
M380.005493,469.166840 
	C386.637360,469.029480 393.269196,468.892120 400.712585,468.901794 
	C408.138489,478.580597 414.818573,488.067719 421.340088,497.662537 
	C424.704407,502.612396 427.786896,507.753845 430.531067,512.865540 
	C422.710815,512.884399 415.356232,512.846436 407.994934,512.447998 
	C403.993713,505.892883 400.026337,499.680695 395.998077,493.508179 
	C390.692230,485.378052 385.338593,477.279175 380.005493,469.166840 
z"/>
<path fill="#0188DB" opacity="1.000000" stroke="none" 
	d="
M430.996735,512.808716 
	C427.786896,507.753845 424.704407,502.612396 421.340088,497.662537 
	C414.818573,488.067719 408.138489,478.580597 401.162170,468.987549 
	C408.569427,468.276764 416.338593,467.627258 424.592346,467.377380 
	C432.046356,477.841370 439.015808,487.905731 445.985291,497.970093 
	C444.348724,502.769287 442.712158,507.568481 440.465729,512.669617 
	C436.902802,512.917297 433.949768,512.862976 430.996735,512.808716 
z"/>
<path fill="#019ADD" opacity="1.000000" stroke="none" 
	d="
M379.541595,469.094604 
	C385.338593,477.279175 390.692230,485.378052 395.998077,493.508179 
	C400.026337,499.680695 403.993713,505.892883 407.528748,512.504395 
	C400.379974,512.896179 393.690613,512.871033 387.001251,512.845825 
	C380.479004,503.207336 373.975647,493.555969 367.424347,483.937256 
	C365.112122,480.542419 362.543304,477.313812 360.383118,473.828644 
	C359.640381,472.630310 359.784485,470.882385 359.797302,469.152496 
	C366.406677,468.953766 372.742188,468.988068 379.541595,469.094604 
z"/>
<path fill="#0157C0" opacity="1.000000" stroke="none" 
	d="
M333.357849,197.805542 
	C331.444672,196.568130 329.450348,195.343781 328.202545,193.588684 
	C316.749268,177.479095 305.420502,161.280960 294.081909,145.090057 
	C293.619659,144.429962 293.420776,143.585403 293.063965,142.481567 
	C296.480042,139.510223 299.931366,136.884094 303.724823,134.460510 
	C308.000549,140.352692 311.919739,146.052307 315.870819,151.729782 
	C323.503418,162.697510 331.096436,173.693909 338.875824,184.556732 
	C339.766479,185.800369 341.740601,186.268036 343.212372,187.095490 
	C339.665924,190.267487 334.648132,192.092728 333.357849,197.805542 
z"/>
<path fill="#0369CD" opacity="1.000000" stroke="none" 
	d="
M440.835632,374.393341 
	C439.919312,381.318665 446.104584,385.064728 449.266571,390.138794 
	C454.911285,399.196960 461.448914,407.702057 467.708405,416.369659 
	C468.489044,417.450623 469.847809,418.114105 471.284241,418.979950 
	C469.746246,424.979889 467.862671,430.970886 465.979095,436.961914 
	C464.548218,429.453522 459.179016,426.891937 453.023071,424.931915 
	C442.469330,421.571564 439.530426,417.694214 438.675690,406.628418 
	C438.586151,405.469238 438.487213,404.295166 438.570190,403.140778 
	C439.250244,393.680817 439.972382,384.223877 440.835632,374.393341 
z"/>
<path fill="#01B0DA" opacity="1.000000" stroke="none" 
	d="
M188.193069,312.646790 
	C188.675461,308.321381 186.918304,304.710083 184.095627,300.858246 
	C171.615707,283.828003 159.568192,266.480896 147.063568,249.066162 
	C150.251144,246.234848 153.739273,243.585861 157.612701,241.188675 
	C167.634018,255.411743 177.249222,269.397522 186.958221,283.317871 
	C187.536346,284.146790 188.866470,284.451172 189.846664,284.999634 
	C189.352219,294.092377 188.857773,303.185120 188.193069,312.646790 
z"/>
<path fill="#0249B4" opacity="1.000000" stroke="none" 
	d="
M312.320374,128.063995 
	C314.305298,125.415054 316.173126,125.425247 318.898193,127.494591 
	C327.639893,134.132782 336.616760,140.461288 345.751465,147.527100 
	C346.404205,149.560516 346.481110,151.198700 347.267181,152.354523 
	C351.454163,158.510727 355.820953,164.544556 360.120728,170.624161 
	C362.253448,173.639786 364.375885,176.662735 366.773895,180.066940 
	C364.139374,180.846146 362.601227,181.301086 361.063049,181.756027 
	C357.970184,182.464218 354.877350,183.172409 351.392212,183.497299 
	C349.592194,180.601364 348.367340,177.963425 346.746307,175.596909 
	C337.770142,162.492691 328.761871,149.409149 319.609772,136.427689 
	C317.490112,133.421143 314.766235,130.840561 312.320374,128.063995 
z"/>
<path fill="#0150BA" opacity="1.000000" stroke="none" 
	d="
M311.982391,128.162231 
	C314.766235,130.840561 317.490112,133.421143 319.609772,136.427689 
	C328.761871,149.409149 337.770142,162.492691 346.746307,175.596909 
	C348.367340,177.963425 349.592194,180.601364 351.000061,183.489105 
	C348.635742,184.908463 346.271271,185.952713 343.559601,187.046234 
	C341.740601,186.268036 339.766479,185.800369 338.875824,184.556732 
	C331.096436,173.693909 323.503418,162.697510 315.870819,151.729782 
	C311.919739,146.052307 308.000549,140.352692 304.027130,134.309540 
	C306.539673,132.057495 309.092041,130.158997 311.982391,128.162231 
z"/>
<path fill="#0EABD9" opacity="1.000000" stroke="none" 
	d="
M386.534210,512.890808 
	C393.690613,512.871033 400.379974,512.896179 407.535522,512.864929 
	C415.356232,512.846436 422.710815,512.884399 430.531067,512.865540 
	C433.949768,512.862976 436.902802,512.917297 440.285156,513.001770 
	C438.448822,513.265320 436.183411,513.699768 433.917419,513.702820 
	C366.276001,513.794861 298.634552,513.844055 230.537262,513.822510 
	C231.797073,513.506653 233.512741,513.268372 235.621521,513.020386 
	C244.366989,513.003784 252.719360,512.996887 261.541351,512.970703 
	C270.696045,512.958435 279.381073,512.965515 288.534637,512.945496 
	C296.691254,512.934753 304.379333,512.950989 312.536163,512.942139 
	C320.024414,512.927734 327.043915,512.938416 334.530945,512.914001 
	C341.106964,512.878906 347.215485,512.878906 354.308014,512.878906 
	C353.381531,510.689026 352.978699,508.988708 352.048859,507.656189 
	C343.834198,495.883728 335.485840,484.204529 327.274811,472.429565 
	C325.335327,469.648285 323.764679,466.609894 322.027679,463.314392 
	C326.114197,463.926788 330.197449,464.914551 334.644287,466.035767 
	C337.700684,470.968750 340.073822,475.985046 343.151642,480.523499 
	C349.926331,490.513306 356.975677,500.321533 364.131165,510.043213 
	C365.181061,511.469696 367.382202,512.732910 369.125641,512.838867 
	C374.753967,513.180908 380.417328,512.947449 386.534210,512.890808 
z"/>
<path fill="#02ACDB" opacity="1.000000" stroke="none" 
	d="
M189.928986,284.564362 
	C188.866470,284.451172 187.536346,284.146790 186.958221,283.317871 
	C177.249222,269.397522 167.634018,255.411743 157.941620,241.070328 
	C161.691071,237.840363 165.496902,234.980560 169.649918,232.403198 
	C172.848923,237.475739 175.397461,242.481384 178.616531,247.010437 
	C185.062653,256.079742 193.071259,264.430664 190.035904,277.058319 
	C190.027695,279.415253 190.019501,281.772156 189.928986,284.564362 
z"/>
<path fill="#02D7CC" opacity="1.000000" stroke="none" 
	d="
M141.233765,359.383057 
	C143.773697,361.586243 146.689774,363.896912 148.804672,366.792755 
	C155.418793,375.849182 161.653854,385.182007 168.231567,394.265930 
	C169.384949,395.858795 171.484497,396.766541 173.506317,397.997620 
	C171.548386,406.421295 167.827286,414.064178 161.338699,421.116302 
	C154.496933,400.226074 147.870132,379.992218 141.233765,359.383057 
z"/>
<path fill="#0480D8" opacity="1.000000" stroke="none" 
	d="
M446.214966,497.698456 
	C439.015808,487.905731 432.046356,477.841370 425.036407,467.427246 
	C430.662476,465.978394 436.468933,465.336578 441.958221,463.657776 
	C448.034790,461.799347 453.821228,458.992310 459.668610,456.624908 
	C455.388000,469.832489 450.916290,483.629639 446.214966,497.698456 
z"/>
<path fill="#0150BA" opacity="1.000000" stroke="none" 
	d="
M479.152527,395.528381 
	C472.360260,386.463806 465.759430,377.110596 459.207886,367.722961 
	C458.369934,366.522308 457.788513,365.142609 457.047699,363.501221 
	C467.886047,362.628967 478.764923,362.101379 490.293518,361.542297 
	C486.654053,372.754913 483.006622,383.992035 479.152527,395.528381 
z"/>
<path fill="#0369CD" opacity="1.000000" stroke="none" 
	d="
M279.542175,151.818390 
	C285.594269,160.316040 291.345367,168.910797 297.017303,177.557465 
	C298.162598,179.303391 299.008087,181.245956 299.999359,183.457611 
	C292.256042,182.800171 284.505188,181.782990 276.151611,180.373657 
	C271.984619,174.207809 268.420319,168.434082 264.855988,162.660370 
	C269.641754,159.084854 274.427521,155.509323 279.542175,151.818390 
z"/>
<path fill="#093FAC" opacity="1.000000" stroke="none" 
	d="
M361.491089,181.786591 
	C362.601227,181.301086 364.139374,180.846146 366.773895,180.066940 
	C364.375885,176.662735 362.253448,173.639786 360.120728,170.624161 
	C355.820953,164.544556 351.454163,158.510727 347.267181,152.354523 
	C346.481110,151.198700 346.404205,149.560516 345.994080,147.782745 
	C351.753235,151.524582 357.537262,155.602417 363.279236,159.738571 
	C372.711487,166.532944 382.116455,173.365143 391.532928,180.181396 
	C391.496155,180.726654 391.459381,181.271912 391.422638,181.817169 
	C381.588135,181.817169 371.753662,181.817169 361.491089,181.786591 
z"/>
<path fill="#1A2398" opacity="1.000000" stroke="none" 
	d="
M450.883148,257.960632 
	C451.929077,253.256821 452.817017,248.508560 454.120239,243.877151 
	C454.495728,242.542801 456.106842,240.533447 457.083191,240.571793 
	C460.869110,240.720535 465.258331,240.598953 468.177338,242.495300 
	C470.167236,243.788040 471.056366,248.368790 470.746216,251.300400 
	C469.917267,259.135864 468.176147,266.874786 466.139832,274.704529 
	C463.706787,272.610504 461.979095,270.422333 460.145325,268.326965 
	C457.093750,264.840149 453.974121,261.412933 450.883148,257.960632 
z"/>
<path fill="#01A5DC" opacity="1.000000" stroke="none" 
	d="
M190.194641,276.681152 
	C193.071259,264.430664 185.062653,256.079742 178.616531,247.010437 
	C175.397461,242.481384 172.848923,237.475739 169.983170,232.308746 
	C174.373016,227.270508 179.751770,228.514191 184.715179,230.124542 
	C189.650757,231.725891 190.890701,236.420929 190.888000,241.042892 
	C190.881119,252.796677 190.552948,264.550293 190.194641,276.681152 
z"/>
<path fill="#0170D2" opacity="1.000000" stroke="none" 
	d="
M264.528137,162.780945 
	C268.420319,168.434082 271.984619,174.207809 275.713501,180.246063 
	C264.631836,180.510605 253.385620,180.510605 242.139389,180.510605 
	C241.987991,180.100601 241.836594,179.690598 241.685196,179.280579 
	C249.190231,173.820892 256.695282,168.361191 264.528137,162.780945 
z"/>
<path fill="#0F30A1" opacity="1.000000" stroke="none" 
	d="
M450.536743,258.159943 
	C453.974121,261.412933 457.093750,264.840149 460.145325,268.326965 
	C461.979095,270.422333 463.706787,272.610504 465.794373,274.903412 
	C464.660797,279.931213 463.215027,284.812592 461.127441,289.726227 
	C459.628723,288.785248 458.746155,287.833252 457.919434,286.834991 
	C454.657532,282.896271 451.413147,278.942993 448.162262,274.995117 
	C448.838287,269.449829 449.514282,263.904541 450.536743,258.159943 
z"/>
<path fill="#093FAC" opacity="1.000000" stroke="none" 
	d="
M448.087036,275.419739 
	C451.413147,278.942993 454.657532,282.896271 457.919434,286.834991 
	C458.746155,287.833252 459.628723,288.785248 460.798859,289.905457 
	C458.824005,297.755310 452.692291,299.943390 444.452148,300.838684 
	C445.653748,292.401672 446.832794,284.123047 448.087036,275.419739 
z"/>
<path fill="#A2BDD2" opacity="1.000000" stroke="none" 
	d="
M398.000000,533.072021 
	C418.622009,533.072083 438.743988,533.072083 458.865997,533.072083 
	C405.610779,534.055237 352.349060,533.820435 299.085266,533.071960 
	C331.890167,533.071960 364.695099,533.071960 398.000000,533.072021 
z"/>
<path fill="#093FAC" opacity="1.000000" stroke="none" 
	d="
M87.000267,531.607361 
	C96.642365,531.129944 106.285469,531.079529 116.386978,531.036743 
	C116.221169,532.029358 115.614578,533.858459 114.970055,533.871887 
	C106.158516,534.056030 97.341293,534.022034 88.527405,533.900879 
	C88.010254,533.893799 87.509605,532.684265 87.000267,531.607361 
z"/>
<path fill="#A2BDD2" opacity="1.000000" stroke="none" 
	d="
M464.509857,342.986145 
	C452.666412,342.993500 441.260834,342.993500 429.855225,342.993500 
	C429.855133,342.756470 429.855072,342.519440 429.855011,342.282410 
	C442.470642,342.282410 455.086304,342.282410 467.701935,342.282410 
	C467.715668,342.402008 467.729401,342.521606 467.743103,342.641174 
	C466.811310,342.753723 465.879517,342.866241 464.509857,342.986145 
z"/>
<path fill="#A2BDD2" opacity="1.000000" stroke="none" 
	d="
M266.066284,200.108612 
	C266.888062,200.212387 267.326019,200.301758 267.763947,200.391113 
	C267.759338,200.519760 267.754761,200.648422 267.750153,200.777069 
	C256.311829,200.777069 244.873505,200.777069 233.435181,200.777069 
	C233.431778,200.549454 233.428360,200.321823 233.424957,200.094208 
	C244.177444,200.094208 254.929947,200.094208 266.066284,200.108612 
z"/>
<path fill="#A2BDD2" opacity="1.000000" stroke="none" 
	d="
M379.956177,254.555405 
	C379.958832,244.010513 379.958832,233.916504 379.958832,223.822510 
	C380.214264,223.824127 380.469727,223.825760 380.725159,223.827393 
	C380.725159,235.008301 380.725159,246.189209 380.725159,257.370117 
	C380.548950,257.378021 380.372772,257.385925 380.196564,257.393799 
	C380.115570,256.597961 380.034546,255.802124 379.956177,254.555405 
z"/>
<path fill="#A2BDD2" opacity="1.000000" stroke="none" 
	d="
M418.014374,410.916779 
	C418.014465,402.857117 418.014465,395.284424 418.014465,387.711731 
	C418.255157,387.712921 418.495850,387.714081 418.736542,387.715240 
	C418.736542,398.168060 418.736542,408.620850 418.736542,419.073669 
	C418.495789,419.090668 418.255035,419.107666 418.014282,419.124664 
	C418.014282,416.551025 418.014282,413.977386 418.014374,410.916779 
z"/>
<path fill="#A2BDD2" opacity="1.000000" stroke="none" 
	d="
M388.558044,449.020142 
	C381.353302,449.022522 374.593964,449.022522 367.834625,449.022522 
	C367.836426,448.752014 367.838226,448.481506 367.840027,448.210999 
	C375.883698,448.210999 383.927399,448.210999 391.971069,448.210999 
	C391.985199,448.369202 391.999329,448.527405 392.013458,448.685608 
	C391.010132,448.796295 390.006805,448.907013 388.558044,449.020142 
z"/>
<path fill="#A2BDD2" opacity="1.000000" stroke="none" 
	d="
M206.589767,217.324280 
	C203.684738,215.496872 200.779709,213.669449 197.018600,211.303528 
	C202.360260,210.239380 204.647079,213.136673 206.852448,216.675491 
	C206.878372,217.097702 206.589767,217.324280 206.589767,217.324280 
z"/>
<path fill="#A2BDD2" opacity="1.000000" stroke="none" 
	d="
M207.018539,216.979340 
	C208.623886,219.175674 210.089050,221.490372 211.554230,223.805069 
	C211.043869,224.090851 210.533524,224.376648 210.023163,224.662445 
	C208.950867,222.438248 207.878555,220.214066 206.698013,217.657074 
	C206.589767,217.324280 206.878372,217.097702 207.018539,216.979340 
z"/>
<path fill="#019ADD" opacity="1.000000" stroke="none" 
	d="
M283.758179,322.185150 
	C283.882263,322.744293 283.831543,323.556885 283.598633,324.614990 
	C283.472107,324.053192 283.527740,323.245911 283.758179,322.185150 
z"/>
<path fill="#0188DB" opacity="1.000000" stroke="none" 
	d="
M342.174988,376.873657 
	C342.013641,376.608490 342.003876,376.175049 341.980225,375.416931 
	C342.086456,375.629974 342.206512,376.167664 342.174988,376.873657 
z"/>
<path fill="#0EABD9" opacity="1.000000" stroke="none" 
	d="
M338.861023,466.793152 
	C338.558105,466.912109 338.055756,466.864441 337.364685,466.649323 
	C337.671173,466.530121 338.166382,466.578339 338.861023,466.793152 
z"/>
</svg>