<?xml version="1.0" standalone="yes"?>
<svg xmlns="http://www.w3.org/2000/svg" width="293" height="299">
<path style="fill:#ffffff; stroke:none;" d="M0 0L0 253L1 253C7.38868 244.421 19.4817 245.718 25.1196 235.996C33.0235 222.368 34.1709 203.24 37.1998 188C44.6982 150.273 50.2837 111.358 52.9105 73C53.2233 68.4318 54.7199 58.3856 51.9722 54.5131C49.7905 51.4383 44.1202 51.2669 41 49.3156C27.9841 41.1757 17.6948 27.4613 30.2137 13.0146C47.0257 -6.38623 85.4001 0.970917 108 1.96063C152.531 3.91077 207.459 -9.70718 249 10.7562C269.249 20.7307 289.894 37.8745 292 62L293 62L293 0L0 0z"/>
<path style="fill:#1fe7cf; stroke:none;" d="M146 192C172.657 192 198.459 191.729 224 182.997C270.137 167.223 293 127.794 293 81C293 58.1649 288.672 36.8853 269 22.4892C224.861 -9.81268 176.914 6.32864 127 2.91049C103.522 1.3027 77.428 -2.06876 54 1.59027C44.0841 3.13895 33.6596 5.90332 27.9946 15.0008C18.9568 29.5145 27.8139 41.6945 40 49.3156C44.0334 51.838 51.2347 51.7153 52.6821 57.0548C55.2843 66.6545 52.1386 79.3028 51.169 89C48.9281 111.411 46.0294 133.731 42.5756 156C39.8218 173.756 36.5804 191.441 32.7901 209C30.7838 218.295 29.3735 228.982 23.8951 236.985C18.3847 245.034 6.88099 243.681 1.74228 251.108C-2.37541 257.059 -1.25619 273.443 3.53318 278.671C14.4134 290.548 31.7532 294.534 47 296.166C73.5525 299.009 100.447 298.396 127 295.925C140.473 294.672 162.732 292.418 168.772 278C174.291 264.822 167.462 255.438 157 248.595C152.735 245.805 147.255 245.027 144.995 239.981C139.095 226.81 145.991 206.136 146 192z"/>
<path style="fill:#ffffff; stroke:none;" d="M56 52C51.3151 66.0548 56.6063 83.5748 53 98C49.8673 110.531 51.1745 124.302 48 137C40.8516 165.594 39.0937 195.625 32 224C30.2903 230.839 27.4078 239.194 21 244C16.3853 247.461 9.42009 246.785 5 250C0.492505 253.278 -0.409089 264.364 1 270C4.48115 283.925 20.8237 283.956 33 287C48.8982 290.975 75.3134 293.172 92 289C101.37 286.658 111.984 289.254 121 287C132.48 284.13 146.476 285.471 155 276C159.106 271.438 162.358 255.624 156 251C149.956 246.604 141.098 246.798 136 240C128.408 229.877 134 214.953 134 203C134 198.582 132.991 189.683 135 186C136.857 182.595 143.655 184 147 184C157.95 184 170.717 185.571 181 183C211.704 175.324 241.771 169.305 263 141C281.387 116.483 290.768 73.6431 278 43C273.625 32.4999 266.015 23.8421 256 18C252.406 15.9036 245.384 13.4638 246 11L243 12C242.424 8.12357 234.509 7.24637 231 6.37036C218.11 3.15286 205.192 3 192 3C170.334 3 148.579 5.78906 127 4.98148C103.917 4.11761 79.0705 -0.0947266 56 3.41205C41.625 5.59708 14.4826 20.4357 29.5694 38.8426C34.2551 44.5594 49.238 48.7383 56 52z"/>
<path style="fill:#1fe7cf; stroke:none;" d="M235.667 9.33334L236.333 9.66666L235.667 9.33334M43 14L44 15L43 14M18 21L18 25L21 25L21 21L18 21z"/>
<path style="fill:#ffffff; stroke:none;" d="M273 30C299.708 80.7614 279.981 145.184 228 171.191C199.447 185.477 168.143 186 137 186C136.956 201.99 126.995 230.85 142 242C139.665 229.421 142.047 216.606 142.91 204C143.192 199.887 141.732 193.624 145.318 190.603C150.177 186.51 159.33 190.227 165 189.907C182.276 188.929 199.256 187.351 216 182.573C264.548 168.719 296.583 123.603 291.166 73C289.523 57.6589 285.643 40.2278 273 30z"/>
<path style="fill:#1fe7cf; stroke:none;" d="M157.043 43.0278C149.432 47.0666 149.339 59.5863 148.271 67C145.919 83.3188 143.942 99.6825 141.579 116C140.653 122.4 137.907 132.665 140.603 138.852C143.31 145.062 153.549 142.149 158 140.099C183.301 128.444 186.85 86.1561 184.907 62C183.926 49.8129 170.118 36.0898 157.043 43.0278z"/>
<path style="fill:#ffffff; stroke:none;" d="M148 140C149.033 115.942 153.832 90.7682 157.754 67C159.299 57.636 161.946 47.6052 173 47C164.135 40.4031 154.903 44.9281 152.503 55C147.62 75.4947 146.66 97.1802 143.579 118C142.568 124.831 138.035 139.224 148 140M43 47L44 48L43 47M45.6667 48.3333L46.3333 48.6667L45.6667 48.3333M151 140C176.226 134.005 182.733 98.1214 182.996 76C183.083 68.6741 184.306 58.4168 179.03 52.4336C175.601 48.5444 167.824 49.3992 164.702 53.2284C159.583 59.5082 159.693 71.3073 158.579 79C157.375 87.3171 156.46 95.6803 155.271 104C153.583 115.812 151.033 128.063 151 140z"/>
<path style="fill:#1fe7cf; stroke:none;" d="M56 54L57 55L56 54M60.3333 93.6667L60.6667 94.3333L60.3333 93.6667M59.3333 103.667L59.6667 104.333L59.3333 103.667z"/>
<path style="fill:#ffffff; stroke:none;" d="M292 104C291.136 114.574 286.531 125.794 281.41 135C253.399 185.356 197.838 192 146 192C145.96 206.343 138.755 227.598 144.995 240.942C147.037 245.309 152.246 246.139 156 248.595C166.344 255.362 174.953 264.738 168.312 278C161.361 291.879 141.634 294.019 128 295.715C98.3497 299.404 65.4063 300.316 36 294.4C23.5303 291.891 7.74884 285.427 1 274L0 274L0 299L293 299L293 162L293 123L292 104z"/>
<path style="fill:#1fe7cf; stroke:none;" d="M32.3333 244.667L32.6667 245.333L32.3333 244.667M25 252L26 253L25 252z"/>
<path style="fill:#ffffff; stroke:none;" d="M161 255C161 260.161 161.807 266.134 159.772 271C153.922 284.981 135.065 287.408 122 289.271C90.5808 293.75 59.4139 291.479 28 289L28 290C64.3316 297.495 106.589 298.725 143 290.575C150.112 288.983 158.615 286.474 163.606 280.815C169.955 273.616 169.651 260.003 161 255M25.6667 288.333L26.3333 288.667L25.6667 288.333z"/>
</svg>
