<?xml version="1.0" standalone="yes"?>
<svg xmlns="http://www.w3.org/2000/svg" width="293" height="299">
<path style="fill:#ffffff; stroke:none;" d="M0 0L0 299L81 299L81 298C66.9721 297.388 51.715 291.005 40 283.564C28.6064 276.327 17.6232 268.76 10.4637 257C-6.06105 229.857 5.05075 192.456 34 179.312C59.8607 167.571 100.243 177.748 108.51 208C112.282 221.804 104.604 231.823 104 245C121.717 240.743 127.455 217.561 130.989 202C138.277 169.91 139.855 137.628 142.09 105C143.122 89.9174 145.534 71.8427 142 57C120.244 61.039 100.165 37.7439 115.533 18.0146C126.985 3.31223 153.77 1.00189 171 1C157.879 -4.50571 134.3 0 120 0L0 0z"/>
<path style="fill:#0fe5cb; stroke:none;" d="M142 57C144.891 72.5718 142.726 89.3274 142.039 105C140.643 136.879 138.179 168.734 131.207 200C127.51 216.579 121.764 238.804 104 245C105.538 227.493 115.231 214.187 104.034 197C82.0647 163.278 25.746 168.048 8.27006 203C-8.64495 236.83 12.4369 267.458 41 284.796C79.1753 307.968 138.864 303.675 178 284.742C200.286 273.959 219.92 259.361 231.68 237C242.102 217.184 242.833 193.791 245.166 172C248.309 142.647 252.021 113.354 255.166 84C256.084 75.4304 256.613 64.7167 263.213 58.3295C268.56 53.1548 275.807 53.958 281.985 50.6968C289.615 46.6684 289.756 36.5299 288.815 29C286.928 13.8944 266.006 5.65991 253 3.00385C235.134 -0.644714 217.133 0 199 0C177.058 0 154.1 -0.281555 133 6.67053C125.08 9.27988 116.834 13.0515 113.05 21C103.386 41.2998 120.457 62.1289 142 57z"/>
<path style="fill:#ffffff; stroke:none;" d="M235 0L235 1C252.409 1.04794 286.176 8.8782 288.815 30C291.503 51.5123 276.428 47.3565 264.105 56.8032C259.183 60.5768 257.388 67.1491 256.438 73C251.195 105.305 248.65 138.457 245.166 171C242.864 192.503 242.048 215.287 232.191 235C219.325 260.733 194.423 278.602 168 288.575C155.831 293.168 142.062 297.439 129 298L129 299L293 299L293 0L235 0M203 2.42438C182.634 5.09061 162.308 2.85031 142 7.65433C133.142 9.74973 122.613 12.9154 117.479 21.0394C115.77 23.7434 114.582 26.8218 114.185 30C113.54 35.1629 113.191 43.6535 118.225 46.8356C126.271 51.9225 143.543 43.8482 145.852 58.0394C148.307 73.1306 146.127 90.8449 145.09 106C143.117 134.806 142.094 163.527 136.4 192C133.175 208.125 129.654 227.084 118.671 239.985C112.205 247.58 93.876 252.829 91.6181 238C90.9219 233.428 94.2983 228.266 95.561 224C98.1849 215.135 98.6507 206.569 94.6759 198C83.557 174.028 50.1381 172.71 30 185.069C1.22945 202.725 -2.55411 246.613 24.0147 268.37C34.0662 276.602 45.6614 282.159 58 285.975C73.1244 290.651 89.2646 291.65 105 290.961C119.822 290.312 134.824 286.739 149 282.576C180.959 273.188 208.846 252.727 222.688 222C230.715 204.183 231.116 183.151 233.166 164C236.629 131.654 240.325 99.3026 244.17 67C245.056 59.5546 247.706 52.1729 254.015 47.6489C264.92 39.8284 282.498 41.8896 276.196 22.0038C273.799 14.4399 265.958 10.4626 259 8.0787C242.982 2.59122 219.745 0.232178 203 2.42438M279 20C281.05 28.6088 280.987 40.0323 271.996 44.6968C266.254 47.6759 259.276 46.9994 254.213 51.5332C249.695 55.5782 248.106 62.2319 247.285 68C243.138 97.1747 240.303 126.699 237.166 156C232.063 203.664 226.569 247.098 180 272.688C165.112 280.869 149.518 286.314 133 290.113C113.581 294.578 94.6588 293.844 75 293L75 294C84.991 294.788 94.9339 297.216 105 296.985C153.731 295.87 210.634 275.855 231.127 228C238.383 211.056 239.229 192.09 241.166 174C243.735 150.001 246.334 125.954 249.285 102C250.985 88.1975 249.324 65.5737 260.185 55.3287C266.511 49.3613 278.408 50.9998 283.142 43.892C287.517 37.3223 284.778 24.5382 279 20M127 52L127 53L139 54L127 52M98 197C102.805 212.125 97.251 220.494 95.348 235C94.8137 239.073 96.581 241.276 100 243C102.365 227.208 112.795 210.671 98 197z"/>
<path style="fill:#0fe5cb; stroke:none;" d="M22 265L24 267L22 265z"/>
<path style="fill:#ffffff; stroke:none;" d="M71 292L72 293L71 292z"/>
</svg>
